<?xml version="1.0" standalone="no"?>
<!DOCTYPE svg PUBLIC "-//W3C//DTD SVG 20010904//EN"
 "http://www.w3.org/TR/2001/REC-SVG-20010904/DTD/svg10.dtd">
<svg version="1.0" xmlns="http://www.w3.org/2000/svg"
 width="459.000000pt" height="459.000000pt" viewBox="0 0 459.000000 459.000000"
 preserveAspectRatio="xMidYMid meet">

<g transform="translate(0.000000,459.000000) scale(0.100000,-0.100000)"
fill="#000000" stroke="none">
<path d="M2160 4583 c-474 -34 -877 -184 -1250 -464 -431 -324 -733 -798 -854
-1339 -14 -63 -33 -199 -43 -301 -15 -175 -15 -197 0 -370 21 -220 50 -362
112 -547 132 -388 360 -730 665 -994 585 -507 1371 -687 2115 -483 312 86 635
257 883 468 378 324 651 788 752 1279 138 670 -29 1362 -458 1900 -239 300
-592 558 -960 702 -289 113 -662 171 -962 149z m378 -104 c244 -27 492 -99
717 -208 673 -329 1125 -960 1225 -1714 14 -112 12 -413 -4 -537 -38 -280
-139 -594 -254 -785 -133 -222 -214 -329 -364 -483 -280 -287 -665 -504 -1053
-596 -300 -70 -646 -76 -950 -15 -229 46 -568 184 -755 308 -626 415 -1000
1104 -1000 1841 0 597 237 1162 662 1576 348 339 772 545 1253 609 125 16 394
18 523 4z"/>
<path d="M2183 3880 c-12 -5 -26 -18 -32 -29 -14 -25 -14 -68 -1 -76 21 -13 9
-25 -26 -25 -130 0 -177 -187 -62 -246 23 -12 29 -21 24 -36 -7 -30 11 -58 38
-58 31 0 50 24 44 55 -4 18 1 29 19 40 74 49 83 144 20 213 l-20 22 25 0 c31
0 68 39 68 72 0 49 -52 86 -97 68z"/>
<path d="M2412 3768 c-19 -19 -14 -56 8 -68 43 -23 83 17 60 60 -12 22 -49 27
-68 8z"/>
<path d="M2701 3626 c-15 -18 -3 -46 20 -46 25 0 35 26 19 45 -15 19 -24 19
-39 1z"/>
<path d="M2350 3612 c-49 -26 -82 -92 -78 -155 l3 -49 -38 6 c-49 8 -103 -15
-125 -54 -20 -35 -26 -37 -44 -11 -20 29 -80 61 -113 61 -16 0 -48 -9 -71 -19
-152 -69 -126 -286 39 -316 41 -8 43 -11 22 -39 -32 -43 -6 -125 45 -141 26
-8 25 -13 -15 -59 -31 -34 -35 -37 -41 -20 -13 36 -53 81 -84 94 l-31 13 24
26 c14 14 28 36 31 48 10 31 -17 78 -52 92 -86 36 -164 -76 -97 -139 l25 -23
-39 -24 c-46 -27 -81 -91 -81 -147 0 -44 12 -70 51 -112 l29 -30 -30 -22 c-37
-28 -39 -64 -5 -97 30 -30 54 -31 89 -4 27 21 34 56 16 89 -9 16 -5 19 33 25
30 6 53 19 81 47 21 21 39 37 40 36 42 -91 48 -99 85 -118 50 -25 116 -26 164
-1 l37 19 0 -25 c0 -36 -58 -58 -116 -44 -48 12 -85 3 -121 -31 l-21 -20 -21
21 c-21 21 -25 23 -74 26 -42 3 -87 -43 -87 -89 0 -76 34 -106 119 -106 33 0
56 -6 74 -20 14 -11 30 -20 36 -20 24 0 81 -64 92 -103 12 -43 15 -341 4 -376
-4 -13 -19 -20 -52 -25 -25 -3 -293 -6 -595 -6 l-549 0 3 -27 3 -28 895 3
c492 1 1069 5 1283 9 l387 6 0 23 c0 22 -4 23 -92 26 -51 2 -310 0 -575 -4
-288 -5 -491 -4 -506 1 -27 11 -31 37 -43 319 l-7 152 26 0 c15 0 48 -14 74
-30 97 -62 201 -21 235 92 11 39 13 40 47 34 100 -16 182 95 136 183 l-14 28
42 6 c62 8 107 60 107 123 0 39 -5 51 -34 80 -28 28 -41 34 -77 34 -49 0 -101
-27 -119 -61 -12 -22 -10 -90 4 -121 6 -14 1 -18 -31 -24 -53 -9 -82 -30 -99
-70 -16 -37 -21 -39 -58 -23 -17 8 -26 23 -31 48 -10 50 -22 69 -58 91 -39 24
-95 26 -126 3 -24 -16 -24 -16 -16 8 15 43 8 138 -14 173 -23 36 -87 76 -123
76 -34 0 -40 9 -23 34 33 47 3 146 -45 146 -29 0 -32 15 -5 40 13 12 29 35 36
51 6 17 14 28 18 27 58 -30 71 -44 64 -68 -4 -14 -8 -48 -8 -77 0 -60 22 -97
78 -128 26 -14 37 -28 42 -52 10 -53 44 -85 93 -87 42 -1 42 -1 42 -39 0 -57
52 -107 110 -107 79 0 129 85 96 163 -15 37 -15 37 9 37 63 0 115 53 115 119
0 48 -55 101 -104 101 -97 0 -142 -68 -111 -167 7 -21 4 -23 -24 -23 -27 0
-31 3 -31 29 0 15 -9 39 -20 53 -19 26 -12 48 16 48 35 0 104 86 104 130 0 23
6 24 40 5 33 -19 70 -19 97 0 19 13 24 13 51 -2 28 -16 31 -16 56 0 48 32 27
107 -30 107 -16 0 -27 8 -33 23 -12 29 -40 54 -73 62 -37 9 -93 -19 -109 -56
l-12 -30 -26 24 c-14 14 -36 30 -49 36 l-23 12 32 22 c47 32 71 69 76 120 7
59 -25 128 -71 157 -42 25 -110 26 -156 2z m19 -313 c-22 -14 -29 -11 -29 11
0 18 3 19 21 9 17 -9 19 -13 8 -20z"/>
<path d="M2717 3443 c-12 -12 -7 -41 7 -46 19 -7 40 18 32 38 -6 15 -28 20
-39 8z"/>
<path d="M2877 3113 c-13 -12 -7 -44 8 -49 24 -10 47 14 34 37 -10 19 -30 25
-42 12z"/>
<path d="M2934 2885 c-8 -20 4 -35 27 -35 14 0 19 7 19 25 0 18 -5 25 -20 25
-11 0 -23 -7 -26 -15z"/>
<path d="M1524 2824 c-5 -19 -1 -31 14 -46 20 -20 22 -20 46 -4 44 28 32 76
-20 76 -28 0 -35 -4 -40 -26z"/>
<path d="M1135 2576 c-25 -38 -35 -86 -35 -173 0 -81 0 -82 -27 -85 -39 -4
-42 -28 -4 -28 18 0 31 -5 32 -12 1 -7 6 -87 12 -178 10 -135 15 -165 27 -165
10 0 14 9 13 30 -1 17 -5 96 -9 177 l-7 147 33 3 c51 5 51 28 -1 28 l-42 0 5
98 c5 102 25 162 54 162 9 0 29 -13 46 -30 34 -35 48 -38 48 -11 0 55 -115 84
-145 37z"/>
<path d="M452 2562 c-101 -54 -158 -285 -117 -476 37 -176 152 -219 257 -96
59 69 109 190 78 190 -5 0 -27 -38 -49 -84 -99 -206 -227 -189 -262 34 -29
187 40 398 136 416 41 8 81 -24 89 -71 4 -21 13 -35 21 -35 34 0 6 82 -41 119
-32 25 -68 26 -112 3z"/>
<path d="M2955 2560 c-16 -26 81 -539 112 -592 43 -74 65 -37 142 248 65 238
87 341 77 351 -14 15 -26 -21 -74 -222 -59 -247 -89 -350 -106 -364 -10 -9
-18 5 -34 62 -28 97 -92 456 -92 516 0 14 -17 15 -25 1z"/>
<path d="M3357 2563 c-13 -12 -7 -51 8 -57 32 -12 61 17 49 49 -6 15 -45 21
-57 8z"/>
<path d="M1436 2466 c-32 -29 -45 -46 -37 -50 18 -12 111 59 111 84 0 20 -26
9 -74 -34z"/>
<path d="M2811 2406 c-21 -25 -4 -58 27 -54 23 2 27 8 27 33 0 23 -5 31 -21
33 -11 2 -26 -4 -33 -12z"/>
<path d="M3376 2385 c-17 -18 -18 -31 -12 -185 9 -215 14 -252 35 -248 13 3
15 14 13 53 -1 28 -5 128 -10 224 -7 171 -7 174 -26 156z"/>
<path d="M3639 2382 c-35 -23 -71 -67 -99 -122 -20 -39 -24 -42 -30 -25 -4 11
-8 44 -8 73 0 59 -4 67 -27 58 -15 -5 -16 -27 -10 -203 4 -109 12 -202 17
-208 15 -16 25 11 32 85 16 181 117 341 206 329 18 -3 31 -17 49 -53 22 -43
25 -67 30 -200 5 -125 9 -151 21 -151 12 0 16 18 18 90 6 168 -27 307 -77 335
-29 15 -92 11 -122 -8z"/>
<path d="M4014 2390 c-24 -9 -78 -69 -98 -108 -21 -41 -38 -146 -30 -190 9
-50 40 -99 74 -117 45 -23 123 -19 179 10 41 20 54 34 80 86 67 134 23 257
-112 314 -40 17 -62 18 -93 5z m106 -45 c68 -35 103 -125 86 -220 -8 -40 -55
-99 -97 -121 -37 -19 -109 -18 -138 2 -102 72 -34 354 85 354 19 0 48 -7 64
-15z"/>
<path d="M1405 2371 c-47 -29 -65 -54 -91 -133 -29 -83 -27 -149 7 -229 45
-103 164 -107 254 -8 23 26 32 44 28 55 -5 14 -11 12 -37 -17 -65 -74 -124
-97 -178 -68 -27 15 -58 85 -58 136 l0 41 53 7 c93 12 137 61 137 152 0 42 -4
55 -22 67 -29 21 -56 20 -93 -3z m80 -35 c22 -33 11 -69 -35 -118 -32 -33 -44
-39 -72 -36 -26 2 -34 8 -36 26 -5 34 37 111 72 133 41 25 52 24 71 -5z"/>
<path d="M854 2361 c-84 -51 -168 -239 -150 -335 10 -50 51 -96 86 -96 54 0
115 74 155 188 11 28 22 52 26 52 4 0 10 -44 14 -97 3 -54 9 -108 12 -121 8
-32 28 -21 26 14 -1 16 -6 93 -11 172 -8 133 -19 180 -37 153 -3 -7 -24 -61
-45 -122 -60 -172 -109 -231 -164 -196 -83 54 15 332 133 378 16 6 35 6 54 -1
35 -12 45 -7 27 15 -18 21 -88 19 -126 -4z"/>
<path d="M1415 1570 c-8 -14 3 -30 21 -30 8 0 14 9 14 20 0 21 -24 28 -35 10z"/>
<path d="M2560 1430 c0 -82 3 -150 6 -150 4 0 13 8 19 17 13 17 14 17 32 0 24
-21 74 -22 112 -3 68 36 68 156 0 192 -36 18 -80 18 -105 -1 -30 -23 -34 -19
-34 40 0 42 -3 55 -15 55 -13 0 -15 -23 -15 -150z m174 20 c14 -14 21 -33 21
-61 0 -102 -133 -121 -165 -24 -12 38 4 85 37 105 25 15 83 4 107 -20z"/>
<path d="M1703 1480 c-27 -16 -33 -17 -33 -5 0 8 -7 15 -15 15 -12 0 -15 -18
-15 -105 0 -77 3 -105 13 -105 8 0 12 20 12 65 0 49 5 71 21 92 22 29 67 41
92 25 20 -13 32 -80 25 -134 -5 -41 -3 -48 12 -48 16 0 17 9 13 87 -4 79 -7
88 -32 110 -33 28 -51 29 -93 3z"/>
<path d="M2084 1490 c-65 -26 -85 -123 -38 -179 33 -39 80 -49 129 -25 36 17
54 39 41 51 -3 4 -16 -3 -29 -14 -33 -30 -54 -34 -93 -18 -30 12 -65 58 -53
69 3 3 46 6 97 7 51 1 94 4 96 8 10 15 -26 72 -56 91 -35 21 -60 24 -94 10z
m86 -30 c11 -6 24 -19 30 -30 10 -19 7 -20 -70 -20 -84 0 -94 6 -60 40 22 22
69 26 100 10z"/>
<path d="M3014 1481 c-90 -55 -49 -201 55 -201 20 0 47 7 59 16 22 15 24 15
37 -2 13 -17 14 -5 14 96 0 101 -1 113 -14 96 -13 -17 -15 -17 -37 -2 -30 21
-76 20 -114 -3z m124 -37 c31 -36 29 -79 -7 -115 -33 -32 -58 -36 -100 -14
-52 26 -57 91 -11 137 26 25 36 29 63 24 18 -3 42 -17 55 -32z"/>
<path d="M3378 1493 c-3 -4 -4 -53 -4 -107 1 -70 5 -100 14 -103 9 -4 12 13
12 61 0 83 12 115 50 129 17 6 30 15 30 19 0 11 -28 10 -51 -3 -15 -7 -24 -7
-34 1 -7 6 -15 7 -17 3z"/>
<path d="M957 1408 c61 -146 53 -141 90 -59 18 39 35 71 38 71 3 0 21 -32 39
-72 18 -39 35 -67 38 -62 3 5 24 53 47 107 27 65 36 97 27 97 -7 0 -26 -32
-41 -71 -16 -38 -32 -72 -36 -74 -4 -3 -17 21 -29 53 -43 107 -39 106 -81 17
l-37 -80 -16 40 c-41 98 -50 115 -61 115 -8 0 -1 -29 22 -82z"/>
<path d="M1420 1385 c0 -63 4 -105 10 -105 12 0 14 11 14 122 1 64 -2 88 -11
88 -10 0 -13 -28 -13 -105z"/>
</g>
</svg>
